# xmcd
#
# Track frame offsets: 
#        150
#        23020
#        48635
#        64705
#        80797
#        95550
#        130138
#        150305
#        161963
#        178060
#        194688
#        216408
#        232725
#        239270
#        247640
#        259803
#
# Disc length: 4032 seconds
#
# Revision: 2
# Processed by: cddbd v1.5.2PL0 Copyright (c) Steve Scherf et al.
# Submitted via: ExactAudioCopy v0.99pb5
#
DISCID=d90fbe10
DTITLE=Duke Ellington - Hot Summer Dance
DYEAR=1960
DGENRE=Jazz
TTITLE0=Take the A Train
TTITLE1=Paris Blues
TTITLE2=The Nutcracker Suite Overture
TTITLE3=Tenderly
TTITLE4=Such Sweet Thunder
TTITLE5=Medley:  Black and Tan Fantasy, Creole Love Call, The Mooche
TTITLE6=Satin Doll
TTITLE7=All of Me
TTITLE8=Jeep's Blues
TTITLE9=Laura
TTITLE10=Dance of the Floreadores
TTITLE11=I Got It Bad and that Ain't Good
TTITLE12=Just Squeeze Me
TTITLE13=It Don't Mean a Thing If It Ain't Got That Swing
TTITLE14=Pretty and the Wolf
TTITLE15=Diminuendo and Crescendo in Blue
EXTD=
EXTT0=
EXTT1=
EXTT2=
EXTT3=
EXTT4=
EXTT5=
EXTT6=
EXTT7=
EXTT8=
EXTT9=
EXTT10=
EXTT11=
EXTT12=
EXTT13=
EXTT14=
EXTT15=
PLAYORDER=
